<svg width="400" height="400" xmlns="http://www.w3.org/2000/svg"><path d="M0 400V0h400v400z" fill="#00b3e0"/><path d="M117.445 329L83.08 71.46h60.435l7.9 137.065c.263 11.06.461 21.659.593 31.797.131 10.139.329 21.133.592 32.983h1.58c1.843-11.85 3.884-22.844 6.123-32.983a1119.934 1119.934 0 006.517-31.797l17.38-71.89h37.13l16.195 71.89a3348.899 3348.899 0 006.32 31.6c2.107 10.27 4.213 21.33 6.32 33.18h1.58c.263-11.85.461-22.91.592-33.18.132-10.27.461-20.803.988-31.6l7.11-137.065h56.485L285.32 329h-62.41l-15.01-79.79a698.623 698.623 0 01-4.345-24.885c-1.317-8.427-2.238-16.458-2.765-24.095h-1.185c-.79 7.637-1.712 15.668-2.765 24.095a376.733 376.733 0 01-3.95 24.885L177.88 329h-60.435z" fill="#fff"/></svg>